# xmcd
#
# Track frame offsets: 
#        150
#        17214
#        29162
#        42105
#        59098
#        79295
#        97532
#        120798
#        138220
#        159785
#        171111
#        189027
#        205196
#        231433
#
# Disc length: 3216 seconds
#
# Revision: 0
# Processed by: cddbd v1.5.2PL0 Copyright (c) Steve Scherf et al.
# Submitted via: ExactAudioCopy v0.95b4
#
DISCID=a90c8e0e
DTITLE=Roscoe Chenier - Waiting for my tomorrow
DYEAR=2006
DGENRE=Blues
TTITLE0=Shake a hand
TTITLE1=Ain't got no home
TTITLE2=Time is hard
TTITLE3=Bad luck
TTITLE4=Tell me how long
TTITLE5=Waiting for my tomorrow
TTITLE6=Secret of love
TTITLE7=Rooster blues
TTITLE8=Kiss and say goodbye
TTITLE9=Will the circle be unbroken
TTITLE10=You don't miss your water
TTITLE11=Juanita
TTITLE12=You left me here to cry
TTITLE13=Funny how time slips away
EXTD=
EXTT0=
EXTT1=
EXTT2=
EXTT3=
EXTT4=
EXTT5=
EXTT6=
EXTT7=
EXTT8=
EXTT9=
EXTT10=
EXTT11=
EXTT12=
EXTT13=
PLAYORDER=
